# xmcd CD database generated by RipIT
#
# Track frame offsets:
# 150
# 5932
# 35553
# 64025
# 69787
# 96534
# 127839
# 158164
# 185952
# 213372
#
# Disc length: 2969 seconds
#
# Revision: 0
# Processed by: cddbd v1.5.2PL0 Copyright (c) Steve Scherf et al.
# Submitted via: RipIT 3.7.0-beta20090308 www.suwald.com/ripit/ripit.html on 2009-03-18 at 20:33
#
DISCID=8e0b970a
DTITLE=Bishop Of Hexen - The Nightmarish Compositions
DYEAR=2006
DGENRE=Black Metal
TTITLE0=Unveil The Curtain Of Sanity
TTITLE1=Eyes Gaze To A Future Foreseen
TTITLE2=A Serpentine Crave
TTITLE3=Sleeping By Nightmares
TTITLE4=Self Loathing Orchestration
TTITLE5=Spiritual Soul Sunset
TTITLE6=The Somber Grounds Of Truth
TTITLE7=Stride The Corridors Of One's Mind
TTITLE8=Velvet Demise
TTITLE9=Dreaming...Dementia
EXTD=
EXTT0=
EXTT1=
EXTT2=
EXTT3=
EXTT4=
EXTT5=
EXTT6=
EXTT7=
EXTT8=
EXTT9=
PLAYORDER=
